<svg width="24" height="16" viewBox="0 0 24 16" fill="none" xmlns="http://www.w3.org/2000/svg">
<g clip-path="url(#clip0_2_195)">
<path d="M12.7133 3.28666C10.5789 1.14994 7.27462 0.715022 4.65997 2.22666" stroke="#22D3EE" stroke-width="1.33333" stroke-linecap="round" stroke-linejoin="round"/>
<path d="M2.66669 4H2.67335" stroke="#22D3EE" stroke-width="1.33333" stroke-linecap="round" stroke-linejoin="round"/>
<path d="M1.52665 6.41333C0.840656 9.2075 2.02461 12.1265 4.4632 13.6533C6.90179 15.1802 10.0448 14.9703 12.2587 13.1328C14.4727 11.2953 15.258 8.24482 14.2066 5.56667" stroke="#22D3EE" stroke-width="1.33333" stroke-linecap="round" stroke-linejoin="round"/>
<path d="M10.8267 5.17333C9.78136 4.12195 8.24026 3.73497 6.82226 4.1678C5.40426 4.60064 4.34197 5.78228 4.06201 7.2382C3.78204 8.69411 4.33032 10.1855 5.48666 11.1133" stroke="#22D3EE" stroke-width="1.33333" stroke-linecap="round" stroke-linejoin="round"/>
<path d="M8 12H8.00667" stroke="#22D3EE" stroke-width="1.33333" stroke-linecap="round" stroke-linejoin="round"/>
<path d="M11.9933 7.77333C12.0669 9.06008 11.5159 10.3035 10.5133 11.1133" stroke="#22D3EE" stroke-width="1.33333" stroke-linecap="round" stroke-linejoin="round"/>
<path d="M6.66669 8.00001C6.66669 8.73589 7.26413 9.33334 8.00002 9.33334C8.73591 9.33334 9.33335 8.73589 9.33335 8.00001C9.33335 7.26412 8.73591 6.66667 8.00002 6.66667C7.26413 6.66667 6.66669 7.26412 6.66669 8.00001V8.00001" stroke="#22D3EE" stroke-width="1.33333" stroke-linecap="round" stroke-linejoin="round"/>
<path d="M8.94 7.06L12.7133 3.28667" stroke="#22D3EE" stroke-width="1.33333" stroke-linecap="round" stroke-linejoin="round"/>
</g>
<defs>
<clipPath id="clip0_2_195">
<rect width="16" height="16" fill="white"/>
</clipPath>
</defs>
</svg>
